<svg width="153" height="49" viewBox="0 0 153 49" fill="none" xmlns="http://www.w3.org/2000/svg">
<path d="M7.12728 30.548C7.79208 30.548 8.33173 31.0867 8.33173 31.7524V40.5057C8.33173 41.1705 7.79297 41.7102 7.12728 41.7102C6.46159 41.7102 5.92283 41.1714 5.92283 40.5057V25.1772C5.92283 24.5124 6.46159 30.5489 7.12728 30.5489L0 18.1218V40.8555C0 45.0839 3.19086 48.5108 7.12728 48.5108C11.0637 48.5108 14.2546 45.083 14.2546 40.8555V30.5471H7.12728V30.548Z" fill="url(#paint0_linear_112_96)"/>
<path d="M28.8206 27.1565C29.8573 26.4598 30.3828 25.2189 30.3828 23.4695C30.3828 21.7201 29.8635 20.5121 28.8393 19.8508C28.0538 19.3431 27.2186 19.3201 27.1928 19.3201H13.0918L18.1359 27.7361H27.1706C27.2691 27.7299 28.0653 27.6642 28.8206 27.1565Z" fill="url(#paint1_linear_112_96)"/>
<path d="M26.5877 11.5767H14.2539V16.9243H27.1975C27.415 16.927 29.4209 16.9581 31.0088 18.538C32.1839 19.7069 32.7795 21.3658 32.7795 23.4711C32.7795 26.7907 31.2848 28.4354 30.0307 29.2298C28.6913 30.0783 27.3688 30.1307 27.2224 30.1333H27.2099H18.1362V36.2452H26.5877C33.3999 36.2452 38.9216 30.7236 38.9216 23.9114C38.9216 17.0992 33.3999 11.5775 26.5877 11.5775V11.5767Z" fill="url(#paint2_linear_112_96)"/>
<path d="M41.5834 0C45.6901 0 49.0047 3.39926 48.8656 7.53613C48.7324 11.4752 45.4353 14.5703 41.4945 14.5703H18.933C18.8214 14.562 18.7087 14.5566 18.5951 14.5566C18.4814 14.5566 18.3688 14.562 18.2572 14.5703H18.1234V14.5801C15.8696 14.8158 14.1126 16.7229 14.1126 19.0391C14.1129 21.355 15.8698 23.2604 18.1234 23.4961V27.7129H15.6068C15.2233 27.6445 8.32572 26.2173 8.32554 18.1221C8.32554 14.8115 9.63308 12.1677 12.2123 10.2656C13.943 8.98928 15.7156 8.46455 16.1673 8.34473H41.5834C42.2908 8.34473 42.8546 7.73323 42.7748 7.01074C42.7072 6.39933 42.1671 5.94824 41.5521 5.94824H16.0209C15.935 5.94827 15.8501 5.95798 15.766 5.97656C15.6648 5.99875 13.2696 6.536 10.8705 8.27832C8.61602 9.91503 5.92906 12.9262 5.92906 18.1221C5.92916 23.3178 8.36227 26.2816 10.4037 27.8525C12.6137 29.554 14.9881 30.1094 15.558 30.1094H18.1234V36.2432C8.0175 36.2432 -0.156302 27.9723 0.003274 17.8301C0.157713 8.02234 8.46525 5.41791e-05 18.2748 0H41.5834Z" fill="white"/>
<path d="M64.4547 17.447V24.9056H75.1844V27.5339H64.4547V36.1834H61.3994V14.7903H76.4987V17.4502H64.4547V17.447Z" fill="white"/>
<path d="M80.3789 14.7871H83.3141V36.1802H80.3789V14.7871Z" fill="white"/>
<path d="M88.5713 16.5909C88.5713 15.5832 89.3675 14.7871 90.3754 14.7871C91.3833 14.7871 92.1795 15.58 92.1795 16.5909C92.1795 17.6018 91.3833 18.3947 90.3754 18.3947C89.3675 18.3947 88.5713 17.6303 88.5713 16.5909ZM88.9062 19.9838H91.8414V36.1802H88.9062V19.9838Z" fill="white"/>
<path d="M114.214 28.0835C114.214 33.0653 110.761 36.3665 106.021 36.3665C103.728 36.3665 101.712 35.4788 100.366 33.7382V42.1128H97.4307V19.9868H100.243V22.5551C101.557 20.7513 103.636 19.8352 106.018 19.8352C110.754 19.8352 114.211 23.1364 114.211 28.0867L114.214 28.0835ZM111.25 28.0835C111.25 24.6591 108.897 22.4004 105.778 22.4004C102.66 22.4004 100.337 24.6622 100.337 28.0835C100.337 31.5047 102.691 33.7982 105.778 33.7982C108.865 33.7982 111.25 31.5363 111.25 28.0835Z" fill="white"/>
<path d="M135.057 28.0835C135.057 33.0653 131.603 36.3665 126.864 36.3665C124.57 36.3665 122.555 35.4788 121.209 33.7382V42.1128H118.273V19.9868H121.085V22.5551C122.4 20.7513 124.479 19.8352 126.861 19.8352C131.597 19.8352 135.054 23.1364 135.054 28.0867L135.057 28.0835ZM132.093 28.0835C132.093 24.6591 129.739 22.4004 126.621 22.4004C123.502 22.4004 121.18 24.6622 121.18 28.0835C121.18 31.5047 123.534 33.7982 126.621 33.7982C129.708 33.7982 132.093 31.5363 132.093 28.0835Z" fill="white"/>
<path d="M153 19.9836L145.145 37.8007C143.708 41.2251 141.844 42.2929 139.37 42.2929C137.812 42.2929 136.223 41.7716 135.212 40.7955L136.466 38.5936C137.262 39.3581 138.27 39.7846 139.37 39.7846C140.776 39.7846 141.664 39.1433 142.457 37.2794L142.978 36.1485L135.825 19.9805H138.88L144.536 32.9389L150.128 19.9805H153V19.9836Z" fill="white"/>
<defs>
<linearGradient id="paint0_linear_112_96" x1="7.10065" y1="48.5508" x2="9.36398" y2="18.5505" gradientUnits="userSpaceOnUse">
<stop stop-color="white"/>
<stop offset="1" stop-color="white" stop-opacity="0"/>
</linearGradient>
<linearGradient id="paint1_linear_112_96" x1="18.3285" y1="23.521" x2="16.6178" y2="18.7109" gradientUnits="userSpaceOnUse">
<stop stop-color="white"/>
<stop offset="1" stop-color="white" stop-opacity="0.39"/>
</linearGradient>
<linearGradient id="paint2_linear_112_96" x1="18.0182" y1="24.7635" x2="14.024" y2="14.4231" gradientUnits="userSpaceOnUse">
<stop stop-color="white"/>
<stop offset="1" stop-color="white" stop-opacity="0"/>
</linearGradient>
</defs>
</svg>
